<?xml version="1.0" encoding="utf-8"?>
<!-- Generator: Adobe Illustrator 25.2.1, SVG Export Plug-In . SVG Version: 6.00 Build 0)  -->
<svg version="1.1" xmlns="http://www.w3.org/2000/svg" xmlns:xlink="http://www.w3.org/1999/xlink" x="0px" y="0px"
	width="470px" height="660px" viewBox="0 0 470 660" style="enable-background:new 0 0 470 660;" xml:space="preserve">
<style type="text/css">
	.st0{clip-path:url(#SVGID_2_);}
	.st1{fill:#2C232E;}
	.st2{fill:#FF8C5A;}
	.st3{fill:#FF2500;}
	.st4{fill:#F7B2CC;}
	.st5{fill:#0038FF;}
	.st6{fill:#BEAAFF;}
</style>
<g>
	<defs>
		<rect id="SVGID_1_" width="470" height="660"/>
	</defs>
	<clipPath id="SVGID_2_">
		<use xlink:href="#SVGID_1_"  style="overflow:visible;"/>
	</clipPath>
	<g class="st0">
		<path class="st1" d="M121.4,96.5c0,0.3,0.1,0.6,0.1,0.9c0,0.1,0,0.3,0,0.5c0,0.2,0,0.4,0,0.5c0,0.4,0.1,0.9,0.1,1.3
			c0.1,1.2,0.1,2.4,0,3.6c0,0.6-0.1,1.2-0.2,1.8c0,0.3-0.1,0.6-0.1,0.9c0,0.1,0,0.1,0,0.2l-0.1,0.4c-0.5,2.5-1.2,5-2.2,7.4
			c-0.1,0.3-0.2,0.6-0.3,0.8c0,0,0,0.1,0,0.1c-0.3,0.5-0.5,1.1-0.8,1.6c-0.6,1.2-1.3,2.4-2.1,3.5c-0.3,0.5-0.7,1-1,1.5l-0.5,0.7
			l-0.3,0.4l-0.3,0.4l-0.7,0.9c-0.4,0.5-0.9,1-1.4,1.5c-0.8,0.9-1.7,1.7-2.6,2.5c-0.5,0.5-1,0.9-1.6,1.3l-0.7,0.6l-0.6,0.5l-0.4,0.3
			l-0.7,0.5l-1.5,1c-1.2,0.7-2.3,1.4-3.6,2.1c-1.2,0.6-2.2,1.1-3.4,1.6l-1.1,0.5l-1.4,0.5c-2.3,0.8-4.6,1.4-6.9,1.9
			c-1.2,0.2-2.3,0.5-3.5,0.6c-0.3,0-1.9,0.2-0.8,0.1c-0.6,0.1-1.2,0.1-1.9,0.2c-2.4,0.2-4.8,0.2-7.2,0.1c-1.2-0.1-2.4-0.2-3.6-0.3
			l-1.6-0.2h-0.1l-1-0.2c-2.4-0.4-4.7-1-7-1.8c-1.1-0.4-2.3-0.8-3.4-1.3l-1.1-0.4c-0.5-0.2-1.1-0.5-1.6-0.8c-2.2-1-4.2-2.2-6.2-3.6
			c-0.9-0.6-1.7-1.3-2.5-1.8l-0.9-0.8c-0.6-0.5-1.1-1-1.6-1.5c-1.8-1.7-3.5-3.5-5-5.4c-0.2-0.2-0.4-0.5-0.5-0.7l-0.2-0.3
			c-0.3-0.4-0.5-0.8-0.8-1.1c-0.7-1.1-1.4-2.2-2.1-3.3c-0.6-1.1-1.1-2-1.6-3.1c-0.2-0.5-0.5-1-0.7-1.6l-0.3-0.8l-0.1-0.2
			c0,0,0-0.1-0.1-0.3c-0.8-2.3-1.5-4.6-1.9-7c-0.1-0.6-0.2-1.1-0.3-1.7c0-0.2,0-0.5-0.1-0.7c0,0,0-0.1,0-0.2
			c-0.1-1.3-0.2-2.5-0.2-3.9c0-1.4,0.1-2.3,0.2-3.4c0-0.5,0.1-1.1,0.2-1.6c0-0.1,0-0.3,0.1-0.4c0.1-0.5,0.2-0.9,0.3-1.4
			c0.6-2.5,1.3-4.9,2.3-7.3c0,0.2,0.5-1,0.5-1.2c0.3-0.6,0.5-1.1,0.8-1.6c0.6-1.3,1.4-2.4,2.1-3.5c0.6-1,1.3-1.9,2-2.8l0.3-0.3
			l0.6-0.7c0.5-0.6,1-1.1,1.5-1.7c1.8-1.9,3.7-3.6,5.7-5.1l0.2-0.2l0.7-0.5l1.5-1c1.1-0.7,2.3-1.4,3.5-2.1c1.2-0.6,2.2-1.1,3.3-1.6
			c1.1-0.5,2.1-0.9,3.3-1.3c4.6-1.6,9.5-2.3,14.3-2.3c5.1,0.1,10.2,1,15,2.7c0,0.9,0.3,1.8,0.8,2.5c0.5,0.7,1.3,1.2,2.1,1.5
			c1.2,0.2,2.3,0.6,3.5,1c0.3,0.1,0.5,0.2,0.8,0.3l0.6,0.2l0.6,0.3c0.4,0.2,0.9,0.4,1.3,0.5l0.2,0.1l0.6,0.3
			c0.6,0.3,1.1,0.6,1.7,0.9c0.8,0.5,1.7,1,2.5,1.5c0.5,0.5,1,1,1.5,1.5c0.5,0.5,1.1,0.8,1.7,1c0.8,0.7,1.7,1.5,2.5,2.2
			c1.9,1.9,3.7,3.8,5.4,5.9c0.2,0.3,0.4,0.5,0.6,0.8l0.6,0.7l0.3,0.5l0.6,0.8c0.8,1.2,1.6,2.4,2.3,3.6c0.7,1.2,1.3,2.5,1.9,3.8
			c0.1,0.3,0.3,0.6,0.4,0.9v0.1c0.2,0.7,0.5,1.4,0.7,2.1c0.4,1.3,0.7,2.6,0.9,3.9L121.4,96.5L121.4,96.5z M125.9,80.3
			c-3.1-5.2-6.9-10-11.3-14.2c-4.2-4.1-9.1-7.4-14.6-9.6c-1.5-0.6-3.1-0.9-4.7-1c-4.6-2.5-9.5-4.2-14.6-5.1c-11.3-2-23-0.2-33.3,5
			c-10.5,5.2-18.8,13.8-23.8,24.4c-2.4,5.2-3.8,10.8-4.1,16.6c-0.3,5.7,0.6,11.5,2.6,16.9c4,10.8,11.3,20.1,20.9,26.5
			c9.2,6,19.9,9.4,30.8,9.8c22.9,1,46.7-11.6,55-33.7c2.1-5.8,3-11.9,2.4-18.1c-0.5-6.1-2.4-12.1-5.6-17.3"/>
		<path class="st1" d="M97.8,93.8c-0.5,0.3-1.1,0.6-1.6,0.9c-2.5,1-5.4,0.7-8,0.5c-2.9-0.2-5.8-0.6-8.7-1C74.3,93.4,69.1,92.4,64,91
			c0.9-3.1,1.6-6.3,2.1-9.5c0.1-0.7,0.1-1.4-0.1-2.1c8.6,1.7,16.9,4.7,24.6,9c2.2,1.2,4.4,2.5,6.4,4.1c0.3,0.3,0.7,0.6,0.9,1
			l0.1,0.1C97.9,93.6,97.7,93.8,97.8,93.8z M94.8,114.1c-0.1,0,0.3,0.5,0.3,0.6c0,0.1,0.1,0.2,0.1,0.1c0,0,0,0.1,0,0.1
			c0-0.2-0.1-0.2,0,0c-0.4,0.3-0.7,0.5-1.1,0.7c-0.4,0.2-0.8,0.4-1.3,0.6c-1.4,0.5-2.8,0.7-4.3,0.7c-6.1,0.1-12.4-1.8-18.3-3.5
			c-4.3-1.2-8.6-2.7-12.6-4.6c1.2-2.2,2.1-4.6,2.8-7c0.4-1.1,0.8-2.3,1.2-3.4c4.9,1.4,9.7,3.1,14.4,5.1c5.7,2.2,11,5,16,8.4
			C93.2,112.5,94.1,113.3,94.8,114.1L94.8,114.1L94.8,114.1z M98.9,85.7c-2.4-1.6-4.9-3-7.5-4.3c1.1-2.1,2-4.4,2.4-6.7
			c0.2-0.9,0-1.9-0.5-2.7c-0.5-0.8-1.3-1.4-2.2-1.7c-0.9-0.3-1.9-0.2-2.8,0.3c-0.9,0.4-1.5,1.2-1.9,2.1c-0.4,1.5-0.9,2.9-1.4,4.3
			c-0.1,0.4-0.3,0.9-0.5,1.3c-0.7-0.3-1.3-0.6-2-0.8l-2-0.8c0.2-0.6,0.3-1.3,0.5-1.9c0.4-1.8,0.6-3.6,0.6-5.4c0-4.4-7-4.5-6.9-0.2
			c0,1.3,0,2.6-0.3,3.9c-0.1,0.5-0.2,1-0.4,1.5c-3.8-1-7.6-1.8-11.5-2.3c-2.9-0.4-4.1,3.5-2.6,5.4c-0.5,0.4-0.9,1-1.1,1.7
			c-1,4.5-2.3,9-3.8,13.3c-0.7,2-1.5,4-2.4,5.8c-1,2.1-2.4,4.1-3.2,6.3c-1-0.1-2,0.1-2.9,0.6c-0.9,0.5-1.6,1.3-2,2.2
			c-0.5,1-0.5,2.2-0.2,3.3c0.3,1.1,1.1,2,2.1,2.6c3.1,1.7,6.3,3.2,9.5,4.4c-0.4,1.8-0.8,3.5-1.2,5.3c-0.6,2.6-1.5,5.6,0.5,7.8
			c0.5,0.5,1.1,0.8,1.8,0.9c0.7,0.1,1.4,0,2-0.4c2.3-1.1,2.7-4.2,3.2-6.5l0.9-4.7c1.3,0.4,2.6,0.8,3.9,1.1c1.3,0.3,2.9,0.7,4.4,1.1
			c0,0.2-0.1,0.3-0.1,0.5c-0.3,2.3-0.3,4.7,0,7c0.5,2.8,4.7,2.6,5.5,0.1c0.5-2.1,0.8-4.2,0.8-6.3c3.6,0.8,7.3,1.2,11.1,1.1
			c4.2-0.1,8.2-1.5,11.4-4.1c1.5-1.3,2.5-3.1,2.7-5c0.2-2-0.3-3.9-1.5-5.5c-2.2-3-5.5-4.9-8.6-6.9c-0.7-0.4-1.5-0.9-2.2-1.3
			c2.7,0.2,5.4-0.2,7.9-1.1c3.3-1.3,6.4-3.8,6.2-7.6C104.6,89.9,101.7,87.6,98.9,85.7"/>
		<path class="st1" d="M132.1,309.6c0,0-5.5-112.1,114.1-18.9C390.3,402.9,387.5,306,387.5,306s68.8-15.9,70.9,40.2
			c4.1,108-290.1-7.4-290.1-7.4"/>
		<path class="st2" d="M162,335.6c0,0-2.1,14.8-22.2,11.5c-14.8-2.4-5.6-22.6-5.6-22.6s-4.7-14-1.6-21.7c3.1-7.8-3.1,4.6-3.1-4.7
			s7.8-10.9,9.3-7.8c0,0,11.4-25,34.7-14.2s11.8,36.2,11.8,36.2s1.6,1.6,0,6.2c-1.6,4.7-4.7,4.7-4.7,4.7S169.4,336.7,162,335.6
			L162,335.6z"/>
		<path class="st2" d="M213.8,519.9l0.6,0.9l59.7,87l-15.9-20.3c0,0-8.5-16.8,11.7-56s10.6-25.4,10.6-25.4l21.2,3.2
			c0,0,16.9,139.8-14.8,151.4c-31.8,11.7-147.2-113.3-147.2-113.3"/>
		<path class="st2" d="M128.1,553.8c0,0,55.1,61.4,64.6,97.4l-22.2-39.4l27.5-75.1l13.8,2.1c0,0,13.8,133.4-12.7,148.3
			c-26.5,14.8-102.6-50.7-138.7-131.2C24.2,475.4,128.1,553.8,128.1,553.8L128.1,553.8z"/>
		<path class="st3" d="M76.2,451.1c0,0,108-3.2,139.7,64.6c0,0,7.4,8.5-22.2,28.6c0,0-47.6,45.5-83.7-30.7c0,0,54,47.6-1.1,69.9
			c0,0-50.1,27.6-60.3-63.5C40.2,444.8,76.2,451.1,76.2,451.1"/>
		<path class="st4" d="M111.7,582.3c3.5-1.5,6.9-3.4,10-5.7c-3.7-2.4-7-5.3-9.8-8.5c-1.4-1.6-2.5-3.4-3.3-5.4
			c-0.4-0.8-0.6-1.6-0.6-2.4c0-0.8,0.2-1.7,0.6-2.4c1-1.3,2.2-1.2,3.8-0.8c2.3,0.7,4.4,1.7,6.4,3c3.9,2.5,7.6,5.2,11.1,8.2
			c2.1-3.2,3.4-6.8,3.7-10.6c-0.9-0.6-1.9-1.1-2.8-1.8c-2.7-1.8-5.1-4-7.3-6.3c-1.8-2-4.1-4.8-4-7.7c0.2-5.4,6-5.6,9.8-4
			c3.1,1.5,6,3.2,8.8,5.2c0.9,0.6,1.8,1.2,2.6,1.8c2.2,1.8,4.6,3.5,6.8,5.2c3.3,2.5,6.5,5.1,9.8,7.5c6.8,0.6,13.6-0.5,19.9-3.1
			l-0.3-0.1c-7.1-3.1-14-6.6-20.7-10.4c-3.5-2.6-6.6-5.7-9.3-9.2c-1.3-1.4-2.1-3.1-2.5-4.9c0-1.3,0.7-1.6,1.6-1.7
			c1.8,0,3.7,0.4,5.4,1.1c2.1,0.7,4.2,1.6,6.2,2.6c4.8,2.5,9.4,5.4,14.1,8.2c4.6,2.8,9.5,5.2,14.4,7.7l1.3,0.7l0.6,0.4
			c2-1.3,3.9-2.8,5.6-4.4c3.1-2.1,5.8-4.1,8.1-6l-2.7-0.9c-5.1-1.6-10.1-3.3-15.1-5c-8.7-3.3-17.7-6.2-26-10.4
			c-5.4-2.7-13.3-4.7-15-11.4c-0.3-1.1-0.1-2.3,0.4-3.3c0.6-1,1.5-1.7,2.6-2.1c0.8-0.2,1.7-0.3,2.6-0.4c1.3,0.2,2.7,0.5,4,0.9
			c1.1,0.4,2.1,0.8,3.1,1.3c0.5,0.4,1,0.7,1.5,0.9l0.6,0.2l1,0.9c2.5,1.9,5,3.8,7.5,5.8c2.8,2.3,5.6,4.6,8.5,6.8
			c4.9,3.7,14.2,10.4,20.5,6.3c1.5-0.4,2.7-1.4,3.5-2.7c0.6-1.2,0.8-2.6,0.7-4c-0.1-1.4-0.6-2.7-1.3-3.8c-2.6-4.5-8.2-6.9-12.7-8.9
			c-2.7-1.3-5.5-2.3-8.3-3.1c-0.9-0.2-1.9-0.5-2.9-0.7c-3.1-1.2-6.4-2.2-9.7-3c-1.6-0.4-3.2-0.7-4.8-1c-6.2-0.6-12.4-0.3-18.6,0.9
			c-4.9,0.9-9.6,2.9-13.7,5.7c-4.1,3.2-7.9,6.9-11.4,10.9c-3.8,3.6-7.3,7.5-10.5,11.5c-3.3,4.6-5.4,9.8-6.3,15.4
			c-1,7.4-0.3,14.8,2,21.9C104.4,572.6,107.8,577.6,111.7,582.3L111.7,582.3z"/>
		<path class="st4" d="M202.1,494.8c-5-5.6-10.7-10.5-16.8-14.8c1.8,2.2,3.6,4.3,5.5,6.3C194,489.9,197.8,492.7,202.1,494.8z"/>
		<path class="st4" d="M120.3,507.7c2.5-2.9,4.7-6.1,6.4-9.6c1.4-2.8,2.4-5.9,2.7-9.1c0.2-2.9-0.2-5.8-1.3-8.5
			c-1.1-2.7-2.9-5.1-5.1-6.9c-2.4-1.9-5.1-3.2-8.1-4c-1.5-0.4-3-0.5-4.5-0.5c-0.3,0-0.6,0-0.9,0H109h-0.3c-0.9,0.2-1.8,0.4-2.6,0.7
			c-2.3,1-4.4,2.4-6.2,4.2c-2.1,2.2-4,4.6-5.5,7.2c-3.8,6-6.8,12.5-11.2,18.2c-4.5,6.4-10.5,11.5-17.5,14.9
			c-5.4,2.5-11.2,4.2-17.1,5.1c0,0.1,0,0.2,0,0.3c0.4,3.2,0.8,6.2,1.2,9.1l0.3,0.1c1.9,0.6,3.9,1,5.9,1.4c7.8,1.3,15.8,1.3,23.6-0.2
			C95.4,527.6,109.7,519.7,120.3,507.7L120.3,507.7z"/>
		<path class="st4" d="M92.2,564.6c3.8-2.8,3.7-8.9,0.7-12.3c-2-2-4.5-3.4-7.3-4l-1.2-0.6h-0.2c-0.4-0.1-0.8-0.3-1.2-0.4
			c-1.4-0.5-2.8-0.9-4.3-1.3c-2.9-0.8-5.9-1.4-8.9-1.8h-0.3h-0.3l-0.9-0.1l-2.3-0.3l-4.8-0.5c-2.8-0.3-5.7-0.5-8.5-0.8h-0.2
			c1.4,5.9,3.2,11.7,5.6,17.3c0.4,0.2,0.9,0.4,1.3,0.6c5.7,2.8,11.8,4.7,18.1,5.5c2.9,0.4,5.7,0.5,8.6,0.4
			C88.2,566.5,90.4,565.8,92.2,564.6L92.2,564.6z"/>
		<path class="st4" d="M210.8,530.1c-0.9-1.2-1.3-2.6-1.3-4.1c-0.1-0.6-0.1-1.2,0-1.8c0.5-1.8,1.5-3.4,2.9-4.6
			c0.2-0.2,0.4-0.4,0.6-0.5c1.1-0.9,2.3-1.7,3.5-2.4c-0.1-0.4-0.3-0.8-0.6-1.1c-1.5-3.2-3.2-6.3-5.1-9.3l-0.4,0.2
			c-3.3,1.7-5.9,4.6-7.2,8.1c-0.5,1.5-0.6,3.1-0.4,4.6c-0.2,2.6,0.1,5.2,0.9,7.6c0.8,2.4,2.2,4.7,3.9,6.6
			C208.8,532.2,209.9,531.1,210.8,530.1z"/>
		<path class="st4" d="M47.6,506.6c5.3-0.9,10.3-2.8,14.8-5.7c1.3-0.8,2.5-1.7,3.6-2.6c1.2-1,2.2-2.1,3.3-3.2c1-1.1,1.9-2.2,2.6-3.5
			c3.4-5.2,4.9-11.4,4.3-17.6c-0.1-1.3-0.3-2.5-0.6-3.8c-0.2-0.8-0.4-1.5-0.6-2.2c-0.2-0.6-0.4-1.3-0.7-1.9c-0.3-0.7-0.6-1.3-1-1.9
			c0,0-0.5-0.6-0.5-0.7c0-0.1-0.2-0.3-0.4-0.4c-0.1-0.1-0.6-0.6-0.9-0.9l-0.1-0.1c-0.3-0.2-0.6-0.4-1-0.6l-0.2-0.1h-0.2
			c-1.2-0.5-2.5-0.6-3.8-0.3c-1.3,0.2-2.7,0.6-3.9,1.2c-1.2,0.6-2.2,1.3-3.2,2.3c-1,1-2,2.1-2.9,3.2c-1.8,2.6-3.5,5.4-5,8
			c-0.3,0.6-0.6,1.2-0.8,1.8c-0.6,1.2-1.1,2.3-1.8,3.5C47.4,489.6,47,498.1,47.6,506.6L47.6,506.6z"/>
		<path class="st4" d="M86.1,582.7c0.4-0.1,0.8,0,1.1,0.2c0.3,0.2,0.6,0.5,0.7,0.9c0.2,1.1,0.2,2.2,0.1,3.3c0.7,0.1,1.5,0.2,2.2,0.2
			c0-1.2,0.3-2.3,0.8-3.4c0.5-1.1,1.2-2.1,2-2.9c0.2-0.2,0.4-0.3,0.7-0.4c0.3-0.1,0.5-0.1,0.8,0c0.3,0.1,0.5,0.2,0.7,0.4
			c0.2,0.2,0.3,0.4,0.4,0.7c0.5,1.8,1,3.5,1.3,5.4c2.4-0.3,4.8-0.8,7.2-1.6c-0.8-1.8-1.6-4.6-2.4-6.7c-0.9-2.7-2.3-5.1-4.3-7.2
			c-1-0.9-2.2-1.5-3.4-1.8c-1.3-0.3-2.6-0.3-3.8,0c-0.8,0.1-1.6,0.4-2.4,0.9c-2.7,1.9-4.8,4.5-6.1,7.6c-1.1,1.9-2,3.9-3,5.9
			c1.3,0.7,2.7,1.2,4.1,1.7C83.4,584.4,84.6,583.3,86.1,582.7L86.1,582.7z"/>
		<path class="st4" d="M117.8,456.8c-0.9,0.8-2,1.4-3.2,1.8c-2.9,1.3-6.1,1.6-9.2,0.8c-3.5-1.3-6.3-4-7.8-7.4
			c-7.1-0.7-14.3-1-21.5-0.9c-0.7-0.1-1.3-0.2-2-0.1c-1.6,0-3.3,0.2-4.9,0.6c0.7,0.7,1.5,1.5,2.2,2.1c3.9,3.6,8.2,6.6,12.9,8.9
			l0.9,0.6c3.1,2.3,6.9,3.7,10.7,3.9c6.5,1.4,13.2,1.2,19.5-0.7c3.6-1.1,6.9-3,9.8-5.5c1.6-1.2,3.1-2.5,4.5-4
			c-3.3-0.8-6.6-1.4-9.8-2C119.4,455.6,118.6,456.2,117.8,456.8L117.8,456.8z"/>
		<path class="st4" d="M128.8,473.3c1,3.5,2.8,6.7,5.4,9.3c2.3,3.1,5,5.8,8.2,7.9c4.5,3.3,10.4,6.2,16.1,6.1c2.8,0,5.6-1,7.7-2.9
			c1.2-1.3,2.1-2.8,2.5-4.5c0.4-1.7,0.4-3.5,0-5.2c-0.7-2.9-2-5.7-3.9-8c-0.7-0.8-1.3-1.5-1.8-2.1c-0.5-0.6-0.7-0.9-1.1-1.4
			c-1.4-1.5-2.5-3.3-3.2-5.2c-0.2-0.5-0.3-1-0.3-1.6c-6.5-2.6-13.2-4.8-20-6.6c-1.6,0.6-3.2,1.4-4.7,2.3c-2,1.2-3.5,3-4.4,5.2
			C128.4,468.7,128.2,471,128.8,473.3L128.8,473.3z"/>
		<path class="st2" d="M290.1,525.2c0,0,6.4-17.2,0.9-15c-5.6,2.2-15.7-0.9-15.1-13.3c0.7-12.4,16.2-21.9,16.2-21.9s6.2-2,12.8-17.6
			c0,0,5.4-12.7,16.9-8.5c8,2.9,0.5,15.2,0.5,15.2l-10,18.7c0,0-11.7,21.2-10,29.7"/>
		<path class="st2" d="M117.5,131.2l-8.5-12.7c0,0-2.2-4.1-4.3-2c-0.3,0.3-0.5,0.6-0.7,0.9c-0.2,0.4-0.2,0.7-0.2,1.1
			c0,0.4,0.1,0.8,0.3,1.1c0.2,0.4,0.4,0.7,0.7,0.9l10.6,24.4L117.5,131.2z"/>
		<path class="st2" d="M114.3,136.5l-14.8-12.7c0,0-3.2-1.1-4.2,0c-1.1,1.1-1.1,2.1,1.1,4.2c2.1,2.1,20.1,21.2,20.1,21.2
			S114.3,136.5,114.3,136.5z"/>
		<path class="st2" d="M354.6,417.2c8.7,1.3,17.2,3.5,25.4,6.3c28.6,10.6,33.9,27.5,33.9,27.5s1.1,0-1.1,4.2c0,0-1.1,3.2-7.4-3.2
			c-6.3-6.3-22.2-13.8-22.2-13.8s-4.2,2.1,4.2,8.5c4,3.2,8.3,6,12.7,8.5c0,0,0,4.2-3.2,5.4c-3.2,1.1-44.5-22.3-44.5-22.3
			L354.6,417.2L354.6,417.2z"/>
		<path class="st5" d="M125,327.2c0,0,19-148.3-12.7-149.3c0,0-45.5-15.9-36,184.2c0,0-51.2,91.9,42.3,90
			c52.9-1.1,45.5-48.7,45.5-48.7S337.8,467.9,359,434c0,0,41.3-29.8-201.2-77.5c-129.2-25.4-44.4-29.5-44.4-29.5"/>
		<path class="st1" d="M152.1,580c21.5,24.4,36.2,54.1,42.5,86c0.7,3.2-4.3,4.6-5,1.3c-5.8-29.2-18.9-56.5-38.2-79.2
			c-0.7,0.2-1.4,0.1-2.1-0.2c-0.6-0.3-1.1-0.9-1.4-1.6c-0.4-1.1-0.6-2.3-0.8-3.5C146.7,580.3,150,577.6,152.1,580"/>
		<path class="st1" d="M15.8,171.2c22.7,25.8,38.3,57.2,45,91c0.7,3.4-4.6,4.9-5.3,1.4c-6.1-30.9-20.1-59.8-40.5-83.8
			c-0.7,0.2-1.5,0.1-2.2-0.3c-0.7-0.4-1.2-1-1.4-1.7c-0.4-1.2-0.7-2.4-0.9-3.6C10.2,171.5,13.6,168.7,15.8,171.2"/>
		<path class="st6" d="M143.4,397.9c27.8-9.8,57.7-12,86.7-6.6c2.9,0.6,2.4,5.2-0.6,4.6c-26.5-5.1-53.9-3.3-79.5,5.3
			c-0.1,0.7-0.4,1.3-0.9,1.7c-0.5,0.4-1.1,0.6-1.8,0.6c-1.1-0.1-2.1-0.2-3.2-0.5C141.8,402.5,140.7,398.9,143.4,397.9L143.4,397.9z"
			/>
		<path class="st1" d="M150.4,486.5c-1.4,1.2-2.7,2.6-3.7,4.1c-1.2,1.5-2.5,2.9-3.6,4.4c-2.2,2.7-4.3,5.5-6.2,8.4
			c-4.1,6.2-7.6,12.6-10.7,19.3c-1.2,2.5,2.5,4.8,3.7,2.2c3-6.4,6.6-12.6,10.6-18.4c2.1-3,4.2-5.9,6.5-8.7c1-1.3,2.1-2.5,3.2-3.8
			c1.4-1.2,2.7-2.6,3.8-4.1C155.1,488,152.6,484.9,150.4,486.5"/>
		<path class="st1" d="M280.4,621.5c-0.5-1.8-16.1-30-17.1-31.6c-1-1.6-1.9-3.3-2.9-5c-1.8-3-3.7-5.9-5.8-8.7
			c-4.4-5.9-9.3-11.5-14.5-16.6c-1.9-1.9-5.4,0.7-3.4,2.7c5,5,9.6,10.5,13.7,16.3c2.1,3,4.1,6,6,9.1c0.9,1.4,1.7,2.8,2.4,4.3
			c0.8,1.4,15.9,30.2,17.1,31.6C277.4,625.4,281.2,624.1,280.4,621.5L280.4,621.5z"/>
		<path class="st1" d="M132.8,543.5c-3.6-7.2-12.4-12.8-18.8-17.1c-7.2-4.8-15.1-8.6-23.2-11.5c-15.7-5.6-34.6-8.6-51-4.4
			c-2.7,0.7-3.3,5.3-0.5,6.3c4.9,2.1,9.6,4.6,14.2,7.5c3.3,1.8,6-3.3,2.7-5.2c-1.4-0.8-2.8-1.5-4.2-2.3c4.3-0.2,8.6,0,12.9,0.4
			c16,1.7,31.3,7.3,44.7,16.3c3.3,2.2,6.5,4.7,9.5,7.4c2.8,2.9,5.8,5.5,9.1,7.8C131.5,550.5,134.1,546.3,132.8,543.5"/>
		<path class="st1" d="M372.8,641.9c-1.1-15.8-13.3-27.9-28.3-31.4c-4.1-1-8.3-1.2-12.5-0.7c12-12.8,22.4-27.7,26-45.1
			c3.9-18.8-0.8-40.6-16.5-52.8c-2.9-2.3-6.7,2.1-3.7,4.5c14.6,11.5,18.6,31.9,14.1,49.3c-5,19.5-19,35.3-33.3,48.7
			c-2.9,2.7,1.4,6.1,4.3,4.6c14.1-7.4,34.2-1.1,41.1,13.5c6.7,14.3,0.1,33.3-14.1,40.2c-3.7,1.8-1.6,7.9,2.1,6.1
			c6.7-3.4,12.3-8.7,16-15.3C371.7,657,373.4,649.5,372.8,641.9L372.8,641.9z"/>
		<path class="st2" d="M120.7,181l4.3-63.5c0,0,1.1-7.4-3.2-6.4c-4.2,1.1-8.5,36-8.5,36s-2.1,3.2-6.3,0c-4.8-3.1-9.7-6-14.8-8.5
			c0,0-4.2-1.1-5.4,2.1c-1.1,3.2,16.9,14.8,16.9,14.8s4.2,0,1.1,9.5c-3.2,9.5-6.3,30.7-6.3,30.7L120.7,181L120.7,181z"/>
		<path class="st3" d="M163.9,320.9c0,0-2.5-7.5-8.3-7.5c-5.8,0-3.3-3.3-11.6-1.7c0,0-1.7,1.7-0.8,2.5c0.8,0.8,4.1,8.3,19.1,8.3
			C165.5,322.5,163.9,320.9,163.9,320.9L163.9,320.9z"/>
		<path class="st1" d="M140.8,292.6c-0.1-0.2-0.2-0.5-0.2-0.8c0-0.3,0.1-0.5,0.2-0.8c0.2-0.5,0.5-0.9,0.8-1.2l0.6-0.5
			c0.4-0.3,0.8-0.4,1.2-0.5l1.2-0.2l1-0.2h1.2c0.6,0,1.1,0,1.7,0c0.8,0.1,1.6,0.2,2.4,0.4c1.7,0.4,3.2,1.1,4.7,2
			c0.6,0.4,1.2,0.9,1.8,1.5l0.4,0.4h0.1h0.2c0.1,0,0.3,0,0.4,0l0.3,0.2c0.1,0.1,0.2,0.2,0.2,0.4c0,0.1,0,0.3,0,0.4l-0.1,0.5
			c-0.2,0.4-0.4,0.7-0.7,1l-0.5,0.4c-0.3,0.2-0.7,0.4-1,0.4c-0.1,0-0.3,0-0.4,0c-0.1,0-0.3-0.1-0.4-0.2c-0.1-0.1-0.2-0.2-0.2-0.4
			c0-0.1,0-0.3,0-0.4V295l-0.2-0.2c-0.3-0.3-0.7-0.5-1-0.8c-0.5-0.3-1-0.5-1.6-0.7c-0.6-0.2-1.2-0.4-1.8-0.6
			c-0.6-0.2-1.3-0.3-1.9-0.4c-0.6-0.1-1.1-0.2-1.8-0.2c-1.2,0-2.4,0-3.6,0.3l-1.9,0.4c-0.2,0-0.3,0-0.5,0c-0.2,0-0.3-0.1-0.4-0.2"/>
		<path class="st1" d="M177.5,306.5c-0.1-0.1-0.2-0.2-0.2-0.4c0-0.1,0-0.3,0-0.4c0-0.2,0.1-0.4,0.2-0.6v-0.2
			c-0.1-0.2-0.2-0.3-0.3-0.5c-0.1-0.2-0.3-0.2-0.4-0.5c-0.3-0.3-0.6-0.6-0.9-0.8c-0.6-0.5-1.3-0.9-2-1.3l-1.4-0.8l-0.5-0.2l-0.6-0.2
			c-0.4-0.2-0.8-0.3-1.2-0.5c-0.8-0.3-1.7-0.5-2.5-0.6c-0.4-0.1-0.9-0.1-1.3-0.2c-0.4,0-0.8,0-1.2,0l-0.8,0.2
			c-0.4,0.2-0.7,0.2-1.1,0.1l-0.4-0.2c-0.1-0.1-0.2-0.3-0.2-0.4c0-0.2,0-0.3,0-0.5c0.1-0.4,0.2-0.9,0.5-1.2c0.4-0.6,1.1-1.1,1.8-1.4
			l0.5-0.2c0.4-0.1,0.8-0.3,1.2-0.3c0.4,0,0.8,0,1.2,0c0.6,0,1.1,0.1,1.7,0.2c0.4,0.1,0.8,0.2,1.2,0.3c0.8,0.2,1.6,0.5,2.3,0.9
			c0.7,0.4,1.3,0.8,1.9,1.3l1.6,1.2c0.6,0.5,1.2,1,1.8,1.6l0.8,0.9c0.1,0.2,0.2,0.3,0.4,0.5l0.4,0.5c0,0.1,0.1,0.1,0.2,0.2l0.4,0.2
			c0.1,0.1,0.2,0.2,0.2,0.4c0,0.1,0,0.3,0,0.4c-0.1,0.4-0.2,0.8-0.5,1.1c-0.3,0.4-0.6,0.7-1,1c-0.3,0.2-0.7,0.4-1.1,0.4
			c-0.1,0-0.3,0-0.4,0c-0.1,0-0.3-0.1-0.4-0.2"/>
	</g>
</g>
</svg>
